<?xml version="1.0" encoding="UTF-8"?>
<svg id="All_other" data-name="All other" xmlns="http://www.w3.org/2000/svg" viewBox="0 0 1548.78 451.96">
  <defs>
    <style>
      .cls-1 {
        fill: #e4e3e9;
      }

      .cls-1, .cls-2, .cls-3 {
        stroke-width: 0px;
      }

      .cls-2 {
        fill: #e3e3e8;
      }

      .cls-3 {
        fill: #5f30e0;
      }
    </style>
  </defs>
  <path class="cls-2" d="m314.44,407.55c-42.34,1.33-91.28-12.07-123.62-38.41-16.17-13.17-28.39-32.46-28.88-53.3,35.48,39.55,91.2,59.91,143.82,52.53,9.61-1.35,19.29-3.63,27.53-8.74,8.25-5.11,14.93-13.42,16.16-23.04,7.19-56.23-104.67-47.72-135.55-48.93-36.51-1.43-74.65-6.47-104.45-27.61-23.55-16.71-40.63-46.03-37.17-75.49,2.81-23.87,18.8-44.71,38.62-58.3,48.34-33.15,108.91-32.14,164.8-27.39,33.82,2.87,67.3,6.1,100.85,12.26,7.08,1.3,29.74,6.02,41.06,8.56-63.12,2.07-126.06,9.87-187.77,23.28-24.41,5.3-52.88,15.57-58.45,39.92-4.94,21.57,13.02,43.3,34.26,49.49,21.24,6.18,44.1.48,64.72-7.55,20.61-8.04,40.58-18.48,62.39-22.21-15.35,14.02-30.7,28.04-46.05,42.06,36.24-5.88,74.65,1.15,98.6,27.04,25.15,27.19,32.15,67.41,9.67,99.61-15.74,22.55-43.56,33.15-70.11,35.6-3.42.32-6.9.53-10.42.64Z"/>
  <path class="cls-1" d="m576.94,134.74c1.32,28.86,15.34,101.53,19.53,130.12,6.48,44.15,6.84,100.18-13.37,139.96,81.6-11.67,164.81-12.03,246.51-1.05-44.89-43.91-110.5-65.67-172.73-57.28,7.93-48.49-7.89-154.42-41.13-190.6,20.76.95,43.64,17.86,50.41,32.76-9.71-52.3-52.3-65.24-73.56-133.81-12.68,32.26-16.47,62.7-15.68,79.89Z"/>
  <path class="cls-1" d="m883.69,305.68c2.69-.82,12.22-3.57,18.03-7.6-1.87,6.21-9.67,42.07-60.6,67.68-17.78-12.18-36.92-22.59-56.91-30.97-10.2-4.28-20.6-8.06-31.1-11.28-9.65-2.94-20.83-4.11-29.95-7.78,1.69-8.36,5.08-16.33,6.69-24.77,3.63-18.76,10.09-37.44,11.76-56.52.16-2.06.33-4.11.32-6.17-8.44,10.21-21.79,16.38-35.32,16.21,16.53-10.94,24.43-31.55,22.51-50.74-1.92-19.19-12.56-36.75-26.25-50.7-13.77-14.03-30.67-24.7-47.59-34.8,87.07-4.86,171.26,22.84,258.36,8.09-46.13,23.12-99.69,32.41-151.2,26.01,7.49,23.73,15.06,47.55,22.54,71.36,47.47,2.31,73.41-1.49,126.11-1.89-4.66,5.5-10.63,29.21-48.53,37.25-27.68-7.21-51.21,2.54-80.05,1.56-.6-.02-.87,18.88-.27,21.29,2.37,9.72,6.54,19.33,14.07,26.49,7.69,7.25,21.47,7.6,32.04,9,12.02,1.53,25.4,3.35,37.53,2.16,6.02-.64,11.91-2.18,17.8-3.89Z"/>
  <path class="cls-1" d="m1066.25,400c-29.68-73.78-60.14-152.9-92.76-179.91,4.23,32.19-7.59,123.65-81.2,177.84,39.87-82.32,49.83-189.41,31.45-278.98,23.56,14.93,46.2,45.22,63.81,66.88-1.81-16.48-12.2-40.22-21.6-53.94,37.99,18.29,87.35,115.29,103.14,178.71,9.58-38.14,18.47-58.93,11.74-106.57-6.64-47.63-34.34-91.03-72.05-120.89,31.84,16.31,54.88,25.37,74.38,45.56,19.59,20.28,33.74,53.84,37.36,81.71,7.07,54.79-31.76,165.24-54.28,189.57Z"/>
  <path class="cls-1" d="m1482.67,55.21c-14.55,62.18-92.51,106.63-145.08,117.04-21.93,4.34-48.62,8.31-76.31,9.36-.84,4.82,4.44,77.47-44.18,213.59-23.64,1.11-43.59.09-67.23,1.2,35.54-65.42,62.7-143.17,63.29-214.89-35.21-2.22-31.14-3.05-64.93,8.17-1.09-20.85-7.76-45.09-21.5-68.68,34.29-14.09,78.88-4.17,95.57-2.87,32.53,2.5,52.73,6.76,85.42,6.49,65.22-.56,120.46-25.48,174.95-69.41Z"/>
  <path class="cls-3" d="m342.33,172.35c93.58-6.43,163.71-64.32,209.75-137.12-10.43,37.88-14.2,77.58-11.06,116.75,3.4,42.44,14.81,84.54,11.35,126.97-3.61,44.29-6.54,74.02-26.24,115.45-31.17.96-65.43,7.28-93.33,5.18,27.7-23.66,43.43-62.49,48.82-98.52,5.39-36.03,2.12-72.73-1.15-109.01-30.28,14.59-102.88,17.93-139.15-19.51"/>
</svg>