<?xml version="1.0" encoding="UTF-8"?>
<svg id="All_other" data-name="All other" xmlns="http://www.w3.org/2000/svg" viewBox="0 0 373.3 517.09">
  <defs>
    <style>
      .cls-1 {
        fill: #616580;
      }

      .cls-1, .cls-2, .cls-3, .cls-4, .cls-5, .cls-6 {
        stroke-width: 0px;
      }

      .cls-2 {
        fill: #e4e3e9;
      }

      .cls-3 {
        fill: #8741ff;
      }

      .cls-4 {
        fill: #fffeff;
      }

      .cls-5 {
        fill: #8d96a5;
      }

      .cls-6 {
        fill: #5f30e0;
      }
    </style>
  </defs>
  <g>
    <path class="cls-6" d="m271.37,395.4c-14.41,10.67-27.34,23.33-38.32,37.51-2.87-9.27-11.41-17.95-19.11-23.86-.34-.26-.71-.56-1.12-.85,3.01-2.92,6.05-5.88,9.11-8.85.37.27.73.55,1.09.83.35.26.69.53,1.03.8,3.24,2.56,6.19,5.25,8.5,7.77.23.25.45.49.67.73.98,1.1,1.82,2.16,2.51,3.15.79-1,1.62-1.97,2.5-2.89.29-.31.59-.62.89-.92,8.44-8.44,20.29-13.46,32.25-13.42Z"/>
    <path class="cls-6" d="m280.83,378.26c0,.57-.01,1.13-.03,1.7-.02.54-.06,1.08-.1,1.62-.05.55-.1,1.1-.17,1.65-.01.04-.01.09-.02.14-.07.54-.15,1.09-.24,1.64-.39-1.18-.81-2.36-1.27-3.53-.22-.59-.46-1.17-.7-1.76-1.46-3.51-3.19-6.97-5.15-10.34-.29-.5-.59-1.01-.9-1.51-.16-.28-.34-.56-.51-.84-.27-.44-.55-.89-.84-1.33-.28-.44-.57-.87-.86-1.31-.26-.4-.54-.81-.82-1.21-.18-.28-.38-.56-.57-.83-.38-.55-.77-1.1-1.17-1.64-.28-.39-.57-.77-.86-1.16-.3-.41-.61-.81-.92-1.21-.22-.28-.44-.56-.66-.84,2.21-2.14,4.4-4.28,6.58-6.4.14.19.28.38.43.58.06.09.12.17.18.26.41.6.82,1.22,1.23,1.86.31.48.62.98.91,1.5.29.51.59,1.04.88,1.58.05.08.08.15.12.22.34.66.68,1.33,1.01,2.03.17.36.34.73.51,1.11.01.02.02.04.02.06.17.37.33.75.49,1.13.37.91.72,1.84,1.05,2.8.23.69.45,1.39.66,2.11.03.12.07.24.1.36.12.43.24.87.35,1.32.11.46.22.92.32,1.39.08.39.16.79.24,1.19.03.17.06.34.09.51.07.38.13.77.18,1.16.07.45.13.91.18,1.37.07.62.12,1.25.17,1.89.03.4.05.8.06,1.21.02.5.03,1.01.03,1.52Z"/>
    <path class="cls-6" d="m307.73,358.99c-1.06-.47-2.13-.95-3.2-1.42-.99-.44-1.98-.88-2.96-1.32-4.81-2.13-9.6-4.22-14.14-6.01-.65-.26-1.3-.52-1.94-.75-1.28-.5-2.54-.96-3.76-1.38-.61-.22-1.22-.42-1.81-.61-.6-.2-1.19-.38-1.77-.56-.58-.19-1.15-.35-1.71-.51,2.55-2.48,5.07-4.9,7.57-7.32.58.25,1.15.51,1.72.77.42.19.83.38,1.24.58.34.16.66.31.99.48,1.79.87,3.48,1.77,5.04,2.68.22.12.44.25.65.38.34.2.67.4.99.6-.85-1.47-1.6-2.82-2.32-4.1-.23-.43-.47-.84-.71-1.25-.2-.35-.4-.7-.6-1.04-.2-.34-.4-.68-.61-1.01-.17-.28-.35-.56-.53-.84-.14-.22-.28-.44-.43-.66-.25-.38-.51-.76-.78-1.14,1.94-1.87,3.86-3.74,5.76-5.59,1.98,2.81,3.89,5.99,5.62,9.22.19.35.38.71.56,1.07.57,1.08,1.11,2.17,1.62,3.24.51,1.07.99,2.14,1.45,3.18.15.35.3.7.45,1.04.56,1.33,1.07,2.62,1.52,3.85.14.38.27.76.4,1.13.2.59.38,1.16.55,1.7.18.57.33,1.12.47,1.65.07.26.13.52.19.77s.11.49.16.72c.2.94.31,1.77.32,2.45Z"/>
    <path class="cls-6" d="m332.06,335.47c-3.51,3.79-6.74,6.69-10.25,10.5-.25-.94-.5-1.88-.77-2.81-.22-.81-.45-1.61-.69-2.41-.11-.36-.21-.71-.32-1.07-.49-1.61-1-3.2-1.55-4.77-.3-.9-.62-1.79-.95-2.67-.32-.89-.66-1.76-1.01-2.63-.32-.8-.65-1.59-.99-2.38-.07-.16-.14-.32-.21-.47-.33-.77-.67-1.52-1.03-2.27-.18-.38-.36-.77-.55-1.14-.44-.91-.89-1.8-1.36-2.67-.2-.37-.4-.74-.61-1.1-.56-1-1.13-1.99-1.74-2.95-.36-.59-.73-1.16-1.11-1.73,2.62-2.55,5.16-5.02,7.65-7.42.13.17.25.35.38.53,3.99,5.61,9.27,14.34,15.11,27.46Z"/>
    <path class="cls-6" d="m222.59,439.91c-4.72,4.88-9.11,11.05-13.8,14.96.74-7.9-2.68-16.34-7.3-22.77-.58-.81-1.18-1.59-1.8-2.36-.3-.38-.62-.76-.94-1.14-.54-.64-1.1-1.27-1.67-1.89-.25-.29-.51-.57-.79-.85-.26-.28-.52-.56-.79-.84,3.5-3.42,7.06-6.88,10.67-10.39.05.04.09.09.14.13l.06.06c.07.07.13.14.2.21.55.56,1.09,1.14,1.61,1.72.35.38.68.77,1.01,1.17,6.15,7.47,10.18,12.55,13.4,21.99Z"/>
    <path class="cls-6" d="m197.72,465.12c-.38,1.05-.85,2.08-1.38,3.06-.27.49-.55.97-.86,1.44-.31.47-.62.93-.96,1.37-.2.27-.41.53-.62.79-.63.77-1.31,1.5-2.02,2.21-3.48,3.45-7.8,6.06-12.21,8.27-4.01,1.99-8.23,3.75-12.67,4.13-4.46.4-9.22-.74-12.4-3.89,11.36.8,22.96-4.39,29.96-13.38.48-.62.94-1.25,1.36-1.92.28-.44.53-.89.76-1.35.34-.7.62-1.43.81-2.18.52-2.02.29-4.3-.95-5.96-7.28-9.72-23.23,8.28-28.15,12.71-5.83,5.22-12.45,10.15-20.2,11.34-.24.04-.48.07-.72.1-.19.02-.38.04-.58.05h.01c10.24-9.95,23.78-23.09,39.22-38.08h.01c.39-.11.78-.2,1.17-.27.2-.04.4-.08.6-.11.23-.05.46-.08.69-.11.42-.05.83-.09,1.25-.12.83-.06,1.66-.07,2.51-.02,4.92.26,9.78,1.8,13.01,5.55.27.31.52.64.77.99.74,1.03,1.36,2.2,1.85,3.54,1.4,3.8,1.13,8-.26,11.84Z"/>
    <path class="cls-6" d="m267.41,387.74c-4.62.8-9.18,2.06-13.58,3.79-2.23.88-4.42,1.85-6.55,2.94-1.95,1-3.87,2.53-5.86,3.32-1-1.55-1.68-3.3-2.7-4.87-.33-.5-.65-1.01-.96-1.53-.31-.51-.62-1.04-.92-1.56-.31-.52-.61-1.05-.92-1.57-.17-.3-.35-.6-.53-.89-.13-.23-.26-.45-.4-.68,2.3-2.25,4.61-4.5,6.93-6.74.28.31.59.63.88.93.09.09.18.18.26.26.44.44.8.78.95.86,1.84,1.16,3.94,2.03,6.21,2.01,2.3-.03,4.5-2.06,6.36-3.44,2.11-1.59,4.48-3.32,6.19-5.34.21-.25.41-.52.6-.78.38-.54.74-1.1,1.08-1.67.17-.29.34-.58.5-.87.3-.52,1.37-2.41,1.66-3.91.66,1.24,4.88,8.02.8,19.74Z"/>
  </g>
  <g>
    <path class="cls-3" d="m176.12,443.83c-15.44,14.99-28.98,28.13-39.22,38.07-7.42.62-15.57-3.06-17.87-10.1-2.56-7.9,2.8-16.03,8.18-22.34,11.13-13.09,23.72-24.94,37.43-35.29-9.4,9.73-17.91,20.33-25.41,31.6-2.96,4.47-5.81,10.29-3.03,14.88,2.45,4.04,8.47,4.72,12.66,2.49,4.18-2.22,6.86-6.51,8.83-10.83,1.97-4.3,3.48-8.89,6.28-12.73-.28,4.45-.54,8.91-.81,13.35,3.37-4.53,7.89-7.78,12.96-9.1Z"/>
    <path class="cls-3" d="m221.93,399.35c-3.06,2.97-6.1,5.93-9.11,8.85-5.61-4.22-17.36-12.5-21.63-16.51-2.74-2.56-6.75-7.89-9.65-14.84,13.69,7.49,22.3,3.04,31.74,9.74-3.31-1.3-9.45-.47-12.83,2.52,5.91.34,14.21,4.82,21.48,10.24Z"/>
    <path class="cls-3" d="m253.09,366.27c-5.41,3.08-7.61,8.16-12.26,12.38,0,.08.49.65,1.09,1.3-2.32,2.24-4.63,4.49-6.93,6.74.14.23.27.45.4.68-1.04-1.76-2.12-3.48-3.4-5.05-.29-.35-.57-.7-.88-1.02.23,2.88-.93,5.86-3.06,7.88.92-4.2-.97-8.63-4.17-11.33-3.21-2.69-7.53-3.83-11.79-3.94-4.27-.1-8.52.8-12.69,1.78,12.85-13.93,30.19-22.37,41.55-37.87-3.7,10.6-10.65,20.17-19.66,26.96,4.77,2.58,9.56,5.14,14.34,7.73,7.74-6.83,11.22-11.36,19.4-19.4.1,1.57,2.75,6.17-1.94,13.16Z"/>
    <path class="cls-3" d="m266.01,344.95c1.53,1.22,3.55,3.32,5.61,6.15-2.18,2.12-4.37,4.26-6.58,6.4-6.42-8.12-14.06-15.31-22.12-20.8,5.95-1.24,14.06.07,20.1.78-2.79-2.3-7.99-4.43-11.54-5.15,6.52-2.17,20.74,1.6,32.53,6.78-2.5,2.42-5.02,4.84-7.57,7.32-4.03-1.12-7.59-1.71-10.43-1.48Z"/>
    <path class="cls-3" d="m294.42,328.97c-1.9,1.85-3.82,3.72-5.76,5.59-1.95-2.7-4.4-5.33-8.32-8.37-8.26-6.44-19.16-9.01-29.57-7.96,7.44-2.28,12.42-4.35,18.52-4.15,6.12.19,13.42,3.29,18.21,7.09,2.29,1.83,4.65,4.58,6.92,7.8Z"/>
    <path class="cls-3" d="m319.97,285.88c-2.76,4.01-6.33,8.68-10.46,13.09.29.42,2.93,2.74,7.06,8.51-2.49,2.4-5.03,4.87-7.65,7.42-2.03-3.04-4.3-5.9-6.89-8.56-5.78,5.08-5.28,4.34-8.88,11.17-3.21-2.91-8.38-4.71-13.33-6.8,3.27-7.33,11.64-12.72,14.41-15.09,5.41-4.62,9.16-7.09,14.19-12.16,10.03-10.08,14.98-22.22,17.03-37.04,6.8,11.36,1.16,29.86-5.48,39.46Z"/>
    <path class="cls-3" d="m206.17,414.63c-3.61,3.51-7.17,6.97-10.67,10.39-3.36-3.45-7.04-6.61-10.69-9.76-2.53,6.86-13.35,18.38-24.68,18.03l.12-.19c13.65-15.18,15.82-34.84,11.99-53.17,4.09,7.49,9.52,14.26,15.94,19.9,5.84,5.12,12.52,9.35,17.99,14.8Z"/>
  </g>
  <g>
    <path class="cls-1" d="m316.21,240.08c-4.58,50.5-37.78,48.55-44.99,67.83-6.73-.02-14.96,1.25-23.61,3.37-.07-1.45-.33-2.78-.88-3.96-3.04-.95-7.76-2-10.44-2.26-1.99-.18-3.96-.35-5.95-.5,4.01-1.2,7.94-2.55,11.76-4,3.73-.41,7.45-.85,11.27-.78,2.13.06,4.53,0,8.14-.52,2.15-1.86,2.62-2.36,4.52-4.02,7.59-6.57,15.27-13.27,21.73-20.88,14.72-11.91,24.75-24.53,28.45-34.28Z"/>
    <path class="cls-1" d="m302.47,242.29c-12.76,7.2-19.32,14.12-32.12,23.72,1.83-2.4,3.91-4.67,5.95-6.91,3.68-4,7.35-7.99,11.03-12,1.83-1.99,5.31-6.37,5.05-6.31,3.26-.52,7.05.22,10.09,1.5Z"/>
    <path class="cls-1" d="m134.73,333.59c-1.26,2-2.23,4.11-2.99,6.33-1.76,5.1-6.08,9.06-11.44,9.7-2.2.26-4.43.07-6.52-.66,1.67,3.3,5.03,5.69,8.69,6.21-10.34,1.42-21.18-1.07-29.88-6.87,7.13,2.87,13.49,4.48,20.7,5.35-3.25-2.3-4.29-6.61-4.72-9.03,3.41-.74,8.98.83,12.12-.67,3.17-1.51,5.16-5.4,6.66-8.55-13.57-2.5-27.73-4.11-42-2.19.8-5.14,1.8-8.15,1.24-13.32-.32-2.97-1.4-6.12-2.45-9.2,4.1,6.13,6.52,13.46,4.82,20.49,15.27-1.29,30.73-.48,45.77,2.41Z"/>
    <path class="cls-1" d="m112.91,378.89c-.19,2.56-1.24,4.83-2.78,6.85-6.19,4.11-13.23,6.62-19.47,10.49-.5.32-2.44,1.75-4.77,3.53.29-.45.58-.88.91-1.33,1.09-1.49,2.34-2.87,3.72-4.11,2.84-2.55,6.26-4.45,9.65-6.09,1.11-.54,2.19-1.06,3.28-1.59.16-.07.3-.14.38-.28.09-.14.11-.33.09-.48-.07-4.34-2.42-8.13-5.88-10.6,1.3-.19,2.37-.24,3.51-1.06,1.06-.76,1.87-1.86,2.28-3.09.83-2.46.23-5.22-1.02-7.51-.41-.74-1.02-1.45-1.62-2.14,2.3,1.92,4.68,3.77,6.72,5.95,2.96,3.11,5.3,7.17,5,11.46Z"/>
    <path class="cls-1" d="m152.91,307.27c-2.27,2.61-4.19,6.31-5.81,10.05-1.99-.75-4.01-1.47-6.05-2.15-.8-3.13-1.65-6.2-3.88-8.47-1.62-1.66-3.8-2.63-5.89-3.65-4.78-2.33-10-5.12-14.43-8.54,11,5.36,23.11,9.84,36.06,12.76Z"/>
    <path class="cls-1" d="m96.8,263.18c1.09.07,2.18.14,3.25.19-.43-.02-1.9-4.19-2.15-4.74-.72-1.66-1.4-3.35-2.05-5.05-1.85-4.82-3.43-9.77-4.71-14.78,2.34,5.44,5.78,12.12,10.91,21.23,1.7,3.01,3.57,6.26,5.66,9.84-4.03-2.21-7.65-4.46-10.91-6.69Z"/>
    <path class="cls-1" d="m157.16,398.4c-.05,1.47.04,3-.34,4.47-.12.47-.31.83-.54,1.16-.05.12-.12.25-.22.31-.18.19-.33.33-.51.45-6.26,5.49-11.86,10.59-17.08,15.74-10.88,10.77-20.09,21.73-30.26,36.59-.97,1.4-2.49,2.31-3.72,3.51,2.6.48,4.34.53,6.06-.16,1.71-.65,3.37-2.04,5.03-2.73-.59.24-1.85,3.53-2.35,4.22-.87,1.16-2.49,2.16-3.72,2.96-2.3,1.5-4.9,1.71-7.49,1.54-5.76-.39-11.52-4.02-14.97-8.46-.05-.07-.11-.14-.16-.2s-.09-.13-.14-.19c1.03.62,2.09,1.17,3.2,1.62,2.84,1.14,6.1,1.52,8.91.34,4.89-2.02,6.88-7.69,9.21-12.45,4.19-8.5,10.93-15.49,18.14-21.65,7.21-6.17,14.99-11.65,21.98-18.06,1.95-1.79,3.91-3.77,4.62-6.32.43-1.57.34-3.25.5-4.87.17-1.89,1.39-3.95,2.93-4.89.02.07.05.15.08.24.02.09.04.19.07.3.05.21.11.43.17.65.12.43.24.81.36.98-.09.75.21,1.61.24,2.41.04.83.04,1.66,0,2.49Z"/>
    <path class="cls-1" d="m241.56,313.3c0,.29-.01.57-.04.84-.02.27-.06.53-.11.79-.31,1.61-1.02,2.94-1.99,4.05h0c-1.73,1.97-4.29,3.14-6.97,3.61-7.02,1.23-14.23,1.44-21.39,1.82-1.37.08-2.73.15-4.1.26-3.16.24-6.98-.68-9.35.79-4.01,2.54-7.91,3.44-11.8,3.32-.29-.01-.58-.02-.87-.04-.2-.01-.39-.03-.58-.05-.53-.04-1.07-.1-1.61-.18-.17-.02-.34-.05-.51-.08-1.01-.17-2.03-.39-3.05-.65-.72-.18-1.43-.39-2.15-.61-.03-.01-.07-.02-.1-.03,2.48-.17,4.97-.26,7.42-.52,7.47-.81,14.73-3.23,22.24-3.77,4.44-.31,8.89.05,13.33.05s8.97-.38,13.09-2.07c3.58-1.49,6.81-4.1,8.54-7.53Z"/>
    <path class="cls-1" d="m211.9,354.3c-.03.12-.08.25-.13.37-.12.26-.31.5-.57.67h-.04c-.07.07-.15.1-.24.14-1.55.62-3.04,1.07-4.56,1.3h-.02c-1.73.29-3.46.32-5.26.08-4.29-.53-9.02-2.59-15.07-6.4-.47-.17-.92-.33-1.36-.48-.89-.32-1.74-.61-2.57-.87-.4-.13-.79-.26-1.18-.38,3.85.85,7.55,2.32,11.24,3.65,4.64,1.65,9.46,3.19,14.44,2.93,1.96-.11,4.22-.78,4.91-2.53.08.08.14.17.2.26.06.08.1.18.14.28.12.31.14.65.07.98Z"/>
    <path class="cls-1" d="m229.53,332.53c-.3,1.27-.63,2.34-1.04,3.27-.73,1.75-1.66,3.01-2.73,3.93-2.61,2.24-6.14,2.47-10.15,2.94-1.11.12-2.15.24-3.13.31-.85-.54-1.69-1.05-2.55-1.56-.07-.05-.15-.1-.22-.14.26.04.49.05.69.05,3.27-.05,6.52-.32,9.74-.79,1.76-.28,3.61-.64,4.91-1.87,1.69-1.59,1.97-4.1,2-6.45.8.11,1.63.21,2.48.31Z"/>
    <path class="cls-1" d="m233.89,298.87c-.44.53-.99,1-1.63,1.38-2.52,1.52-5.03,3.06-7.57,3.89-.42.14-.85.26-1.27.35-.6.12-1.19.2-1.8.22-1.02.04-2.04.07-3.06.1-1.18.03-2.35.06-3.52.07-1.17.02-2.33.04-3.49.04-2.31.02-4.61.03-6.89.06-.97.01-1.95.02-2.92.04-.41,0-.82.01-1.23.02-1.38.02-2.76.06-4.14.12-.72.02-1.45.06-2.18.1-.07,0-.14,0-.22.01-.28.01-.56.03-.85.05-.51.02-1.02.05-1.54.1-.37.02-.74.04-1.11.08-.79.05-1.58.12-2.37.2,2.89-.59,6.01-.8,8.66-1.04,4.63-.42,9.3-.54,13.95-.81,2.65-.14,5.3-.35,7.94-.68,2.61-.34,5.24-.81,7.63-1.92,2.38-1.12,4.53-2.95,5.55-5.37.41-.97.69-2.08,1.12-3.03.76.07,1.52.12,2.28.19.56,2.09.02,4.25-1.34,5.83Z"/>
    <path class="cls-1" d="m167.5,366.7c-.16.51-.33,1.01-.51,1.52,0,.03-.02.07-.04.1-.1.3-.21.6-.33.9-.03.1-.07.2-.11.31-.14.39-.29.78-.45,1.17-.24.6-.49,1.2-.75,1.8-.1.24-.21.49-.32.73-1.37,3.12-2.96,6.26-4.65,9.59-.86-1.73-1.57-3.53-1.5-5.45.03-1.52.57-2.99.52-4.5-.07-2.57-1.83-5.22-.74-7.55.51-1.11,1.59-1.85,2.26-2.87,1.26-1.92.97-4.43,1.99-6.43,1.2-.08,2.21,0,3.03.25,3.07.95,3.56,4.27,1.6,10.43Z"/>
    <path class="cls-1" d="m203.4,246.97c0,.2,0,.4-.01.61,0,.62-.02,1.25-.06,1.9-.66,11.22-5.93,21.34-9.68,32.65-.09.11-.18.21-.27.31-.09.1-.18.19-.26.28-.09.09-.18.18-.27.26-.09.08-.18.16-.27.23-.14.11-.27.21-.41.3-.13.1-.27.18-.41.25-.12.07-.25.13-.37.19-.15.07-.31.13-.46.18.37-1.38,1.2-3.13,1.46-3.85.69-1.97,1.45-3.91,2.23-5.83,1.55-3.89,3.19-7.76,4.6-11.72,2.68-7.58,4.49-15.72,2.99-23.59.04.11.07.22.11.33.04.1.08.2.12.31.04.12.08.24.12.37.06.21.12.43.18.65.02.06.03.13.05.2.06.23.11.46.16.7.06.32.12.64.16.96.05.33.09.66.13,1.01.11,1.03.16,2.13.16,3.3Z"/>
  </g>
  <g>
    <path class="cls-5" d="m100.05,263.37c-1.07-.05-2.16-.12-3.25-.19-.74-.51-1.47-1.02-2.18-1.53-3.86-5.97-8.4-11.49-13.55-16.37-1.9-1.8-3.9-3.58-5.15-5.88-2.21-4.11-1.61-9.11-1.04-13.74,1.15-9.27,2.08-19.11,6.71-27.01-3.2,21.76.79,31.85.79,31.85,0,0,.25-4.52,3.51-11.57.13,1.28.29,2.52.46,3.75.42,2.7.97,5.33,1.85,8.2.71,2.4,1.66,4.98,2.94,7.92,1.28,5.01,2.86,9.96,4.71,14.78.65,1.7,1.33,3.39,2.05,5.05.25.55,1.72,4.72,2.15,4.74Z"/>
    <path class="cls-5" d="m141.05,315.17c-5.17-1.73-10.47-3.23-15.74-4.42-6.54-4.4-13.84-7.63-21.48-9.5-.81-6.05-6.57-9.97-11.41-13.71-3.55-2.71-6.85-5.76-9.88-9.04-5.22-5.64-9.63-12.02-13.03-18.88,10.82,12.13,27.18,25.02,47.31,34.85.02.02.02.04.03.04,4.43,3.42,9.65,6.21,14.43,8.54,2.09,1.02,4.27,1.99,5.89,3.65,2.23,2.27,3.08,5.34,3.88,8.47Z"/>
    <path class="cls-5" d="m127.35,335.4c-1.5,3.15-3.49,7.04-6.66,8.55-3.14,1.5-8.71-.07-12.12.67.43,2.42,1.47,6.73,4.72,9.03-7.21-.87-13.57-2.48-20.7-5.35-.19-.12-.36-.24-.55-.36.36,4.27,3.08,8.01,6.21,10.96.95.9,1.94,1.75,2.94,2.58.6.69,1.21,1.4,1.62,2.14,1.25,2.29,1.85,5.05,1.02,7.51-.41,1.23-1.22,2.33-2.28,3.09-1.14.82-2.21.87-3.51,1.06,3.46,2.47,5.81,6.26,5.88,10.6.02.15,0,.34-.09.48-.08.14-.22.21-.38.28-1.09.53-2.17,1.05-3.28,1.59-3.39,1.64-6.81,3.54-9.65,6.09-1.38,1.24-2.63,2.62-3.72,4.11-.33.45-.62.88-.91,1.33-4.42,3.39-10.18,8.07-9.95,8.87-5.49-7.72-9.61-16.43-12.14-25.55-.29-1.08-.55-2.13-.76-3.19,3.44,6.56,6.35,13.08,12.9,17.56,2.35-5.38,12.05-11.37,20.84-13.16-6.77-3.05-15.24-7.97-15.32-10.85-1.03-5.17,4.49-4.37,10.63-2.16-4.01-4.77-8.16-9.84-9.34-15.97-1.23-6.37,1.7-12,7.26-14.91-.55-1.16-8.4-2.3-11.18-2.49,1.71-8.94-5.95-17.58-11.87-24.45-6.43-7.47-14-14.26-18.86-23.01-1.59-2.87-2.82-5.95-3.53-9.15-.03-.17-.07-.4-.08-.66.02-.33.05-.66.1-.98.44-3.25,1.89-11,3.57-14.58,2.35,11.62,8.42,18.66,13.41,23.57,6.33,6.22,13.77,11.36,19.56,18.08,1.07,1.25,2.09,2.56,3.01,3.96,1.05,3.08,2.13,6.23,2.45,9.2.56,5.17-.44,8.18-1.24,13.32,14.27-1.92,28.43-.31,42,2.19Z"/>
    <path class="cls-5" d="m282.03,213.44c-.13.71-.29,1.43-.48,2.14-.38,1.43-.9,2.87-1.58,4.36-.25.56-.53,1.12-.83,1.69h0c-.31.58-.63,1.16-.97,1.75-.47.79-.98,1.6-1.54,2.43-1.02,1.53-2.17,3.07-3.39,4.62-.27.34-.54.68-.82,1.02-.55.67-1.12,1.35-1.69,2.02-.38.44-.75.88-1.14,1.31-.2.24-.4.47-.6.7-.29.33-.59.66-.88.99h-.01c-.29.33-.59.66-.88.99-.3.32-.59.65-.89.97-.68.74-1.35,1.46-2.02,2.18-.67.71-1.33,1.41-1.97,2.1-.16.17-.32.34-.48.51-.16.17-.32.34-.48.5-2.28,2.42-4.43,4.67-6.58,6.84-9.33,9.41-18.76,17.35-38.98,31.39.26-.27,1.54-1.41,3.56-3.26.22-.2.45-.41.69-.63.45-.42.94-.87,1.46-1.36.29-.26.59-.54.9-.83,1.15-1.07,2.42-2.27,3.78-3.57.36-.34.72-.69,1.09-1.06,2.03-1.94,4.24-4.11,6.56-6.46.63-.63,1.27-1.28,1.9-1.94.65-.66,1.29-1.33,1.94-2.01,1.34-1.39,2.7-2.83,4.06-4.3.68-.74,1.36-1.48,2.05-2.24,1.99-2.21,4-4.49,5.97-6.82,13.18-10.7,20.99-19.52,23.48-34.82,1.85-11.26-2.8-25.09-7.09-35.64-1-2.46-6-14.82-10.96-21.86-.82-1.42-1.64-2.6-2.48-3.55-.16-.19-.33-.37-.5-.54-.16-.18-.34-.34-.51-.49-.16-.15-.32-.29-.48-.41,0-.01-.02-.02-.04-.03-.17-.14-.35-.27-.52-.38-.2-.13-.41-.26-.62-.37-.15-.09-.3-.17-.45-.23h-.01c-.16-.09-.33-.15-.49-.21-.23-.08-.46-.15-.7-.21-.15-.04-.31-.08-.47-.1-.14-.03-.28-.05-.43-.06h-.01c-.09-.01-.19-.02-.29-.03-.31-.01-.63-.01-.95.01h-.01c-.22.02-.45.04-.7.08-.5.06-1.05.15-1.64.28-1.49.31-3.25.78-5.23,1.38-.07-.03-.15-.07-.24-.08-10.19,2.52-27.84,7.64-45.36,8.76-2.82-12.69-1.44-25.83.41-38.55,1.12-7.69,7.71-26.32-4.29-28.8-4.56-.94-9.27,1.34-12.59,4.59,5.48-8.94,9.39-18.82,11.55-29.08,1.08-5.1,1.81-10.36,1.93-15.58.11-4.93-3.39-8.87-2.9-13.88.33-3.61,2.66-6.7,3.82-10.16.52-1.59.12-3.34-.26-5.03.07.02.14.05.22.09.01,0,.03.01.05.02.1.04.19.09.29.14h.01c.1.05.2.1.31.16.05.03.11.05.17.08.06.03.11.06.17.09.12.06.24.12.37.18.38.18.81.39,1.26.62.3.15.63.31.95.47.45.22.92.46,1.44.72.41.21.84.42,1.29.66.39.2.8.41,1.22.62.56.29,1.14.59,1.74.9.07.03.14.07.21.11,1.25.65,2.58,1.35,3.96,2.09,3.39,1.81,7.09,3.87,10.8,6.05,1.06.63,2.12,1.26,3.17,1.9,1.05.64,2.1,1.29,3.13,1.94,1.83,1.16,3.63,2.35,5.33,3.52.43.3.84.59,1.26.89-.25-.03-.5-.07-.74-.12-.25-.04-.5-.09-.75-.13-1.6-.29-3.21-.66-4.81-1.08-.41-.11-.82-.23-1.24-.34-.01,0-.02-.01-.02-.01-1.68-.47-3.34-1-4.99-1.54-.33-.1-.65-.21-.98-.32-1.51-.51-3-1.01-4.47-1.5-.63-.22-1.25-.42-1.87-.62-1.2-.38-2.36-.72-3.5-1-.28-.08-.56-.14-.83-.21-.29-.07-.57-.13-.86-.19-.57-.12-1.12-.24-1.69-.33-.55-.1-1.12-.19-1.71-.26-.25-.03-.5-.06-.76-.08-.49-.07-.98-.11-1.49-.14-.34-.03-.69-.05-1.04-.07-.09,0-.17-.01-.26-.01-1.11-.05-2.26-.06-3.48-.02h-.04c-.26,0-.52.01-.79.03-.28,0-.56.01-.84.03.02,0,.03.01.04.02h-.04c.97.27,1.85.52,2.65.77.2.06.39.12.58.18s.37.11.55.17h0c.09.03.18.06.27.09.09.02.18.05.26.08h0c.68.23,1.3.44,1.85.64.14.05.28.1.41.15,1.06.39,1.9.75,2.61,1.07.53.24.98.46,1.41.66.28.14.55.27.81.39l.39.18c.49.22.95.44,1.39.69.22.12.43.24.64.37.21.12.41.25.61.38.18.12.35.23.51.35.08.05.15.11.22.16.33.25.64.5.94.75t.02.01c.17.14.32.3.5.45.34.31.66.63.98.97.16.17.31.33.47.51.16.17.31.35.47.53.07.08.14.17.2.25.24.28.47.57.7.86.14.19.29.39.44.59.15.19.3.39.45.6.03.05.07.1.12.16h.01c.08.12.17.24.27.37.05.07.11.14.16.21.15.21.31.45.47.68.08.12.16.24.23.37.07.12.14.24.21.37.07.12.13.25.19.37.05.1.09.2.12.3.05.11.08.22.1.32.02.08.03.16.04.23.04.25.02.49-.07.7-.26.62-1.02.93-1.86,1.09-.1.02-.21.03-.31.05-.19.02-.37.05-.55.07l-.39.03c-.4.04-.76.07-1.02.11-2.14.34-4.26.6-6.44.76h0c-.13.01-.29.03-.47.05-.17.02-.36.04-.55.07-.02,0-.04.01-.06,0-.53.07-1.12.12-1.64.08h-.04c-.35-.03-.67-.1-.9-.25-.01,0-.01-.01-.02-.01s-.02,0-.03-.01c.03.02.05.04.08.05.12.1.25.18.37.26.04.04.09.07.14.1.07.05.14.1.22.15t.01.01c.12.08.24.16.36.24.2.13.39.25.59.37.35.23.71.44,1.07.64.31.18.62.35.92.52.16.08.32.17.47.25.15.09.31.18.46.26.59.32,1.19.63,1.78.94.03.01.05.03.07.04.3.17.61.33.91.5.14.08.29.16.44.24.02.01.04.02.06.03.13.08.25.15.38.23.27.15.54.31.8.47.02.02.05.03.07.04.01.01.02.01.03.02.29.18.58.36.86.55.51.33,1,.68,1.47,1.06.31.24.61.5.9.76.29.27.58.55.86.84.41.44.8.91,1.17,1.42.12.16.24.34.36.51.12.18.23.36.34.55.06.11.13.22.19.34.04.07.08.15.12.23.11.21.23.43.34.66.11.22.21.45.31.68.2.47.4.94.58,1.42.14.36.26.73.38,1.1.12.37.23.74.34,1.12.1.38.2.77.28,1.15.09.39.18.77.25,1.16.06.3.11.61.15.92.03.18.05.36.07.54.05.33.09.66.12.99.03.36.05.72.07,1.07v.05c.02.39.03.77.03,1.16,0,2.09-.26,4.14-.84,6.05-.2.63-.43,1.25-.69,1.85-.86,1.96-1.82,3.84-2.84,5.65-.21.37-.42.74-.62,1.1-.43.72-.85,1.43-1.28,2.13-.43.71-.87,1.41-1.31,2.11-.67,1.04-1.34,2.08-2,3.11-.41.63-.82,1.26-1.22,1.89-1.15,1.79-2.28,3.58-3.36,5.42-.31.53-.62,1.07-.92,1.61-.51.89-.99,1.8-1.45,2.73-.19.37-.38.75-.55,1.13-.27.55-.53,1.12-.77,1.69-.18.39-.35.79-.51,1.19-.16.38-.31.77-.46,1.17-.23.6-.45,1.21-.65,1.84-.13.35-.24.71-.35,1.08-.06.18-.12.36-.16.55-.1.29-.18.59-.26.89-.03.13-.07.27-.09.41-.29,1.35-.27,3.03-.24,5.04,0,.29.01.59.01.9.01.87,0,1.81-.02,2.8-.01.35-.03.7-.04,1.07-.02.36-.04.73-.07,1.11-.04.49-.08,1-.14,1.52-.09.69-.17,1.38-.29,2.14-.09.55-.2,1.1-.32,1.67-.06.28-.12.56-.18.84-.08.3-.15.6-.23.91-.1.42-.22.83-.33,1.25-.03.1-.06.2-.09.3-.23.73-.47,1.46-.74,2.22-.17.45-.33.9-.5,1.35l-.57,1.35s.01-.02.02-.02v.04c.76-.72,1.5-1.4,2.22-2.05.44-.39.86-.77,1.28-1.14.63-.55,1.24-1.08,1.84-1.58.33-.28.66-.55.99-.81.64-.53,1.27-1.04,1.88-1.51.24-.19.48-.38.72-.56.47-.36.93-.7,1.38-1.03.45-.32.89-.63,1.31-.93.64-.45,1.25-.86,1.84-1.24.38-.24.76-.48,1.12-.7,0,0,0-.01.01-.01.54-.33,1.05-.63,1.53-.91.49-.29.96-.54,1.39-.76.57-.31,1.09-.57,1.56-.79.24-.13.47-.21.69-.32,1.33-.6,2.6-1.17,3.84-1.73.41-.18.82-.35,1.22-.52.39-.17.78-.33,1.17-.49.61-.25,1.21-.48,1.81-.71.39-.14.79-.29,1.19-.42.21-.08.42-.15.63-.21.28-.1.55-.18.83-.26.26-.08.52-.16.78-.23.41-.12.83-.23,1.24-.32.32-.08.64-.15.96-.22.33-.07.67-.13,1.02-.19.16-.03.32-.06.49-.08.29-.05.58-.09.87-.13.42-.06.84-.1,1.27-.13.04-.02.08-.02.13-.02.32-.03.65-.05.99-.06,1.25-.08,2.56-.07,3.95.02.19.01.39.03.59.04.2.02.4.03.61.05.21.02.42.04.64.06.07,0,.15.01.23.02.43.04.88.1,1.33.15.92.12,1.86.28,2.81.46,1.26.26,2.53.57,3.72.96.62.21,1.22.43,1.78.68.19.08.39.17.57.26.28.14.55.28.81.44.26.14.51.3.74.46h.01c.07-.14.14-.29.2-.45.03-.06.05-.13.07-.19.01-.02.01-.04.01-.06.07-.15.12-.31.15-.48.05-.16.08-.34.11-.51.06-.38.09-.78.09-1.19,0-.22-.01-.44-.03-.66,0-.12-.01-.24-.03-.36h0c-.02-.21-.04-.41-.08-.62-.04-.26-.09-.53-.16-.81,0-.06-.02-.13-.04-.2-.05-.24-.12-.49-.19-.73-.09-.33-.19-.66-.31-.99-.21-.62-.45-1.24-.73-1.88-.05-.11-.1-.22-.16-.33-.1-.21-.2-.42-.3-.64-.01,0-.01,0-.02-.02-.01-.03-.03-.05-.04-.08-.02-.05-.05-.1-.08-.16-.06-.13-.13-.25-.2-.38-.22-.43-.46-.87-.72-1.3-.76-1.29-1.64-2.56-2.61-3.75-.24-.31-.49-.6-.74-.89-.25-.29-.5-.57-.75-.85.36.11.7.27,1.04.44.15.07.3.15.44.22.36.19.72.4,1.08.63.19.12.38.24.57.38.02,0,.04.02.06.04.31.2.6.43.91.67.03.02.06.05.09.08.22.17.43.34.65.53.32.27.63.55.94.84.15.14.29.28.45.43.62.61,1.22,1.27,1.8,1.94.28.33.56.67.83,1.01.28.35.56.71.83,1.07.01.01.02.03.03.04.23.31.46.63.67.94.19.27.38.54.56.81.13.2.26.39.38.59.18.26.34.52.49.78.14.23.28.46.41.68.13.2.25.42.36.62.21.36.4.72.59,1.09.1.17.18.35.27.52.09.18.18.36.27.53.08.17.17.34.24.51.29.62.54,1.22.76,1.78.07.19.13.37.2.55.06.18.12.35.17.52,1.25,3.99,2.68,7.92,4.23,11.8.92,2.33,1.88,4.64,2.87,6.95,2.63,6.15,5.41,12.24,8.02,18.39.27.64.54,1.29.81,1.95.25.63.5,1.27.75,1.92,1.27,3.31,2.48,6.82,3.55,10.44.22.72.43,1.45.63,2.18.24.87.47,1.74.69,2.62.05.18.1.36.15.55.01.07.03.15.05.22.15.62.31,1.23.45,1.85.02.08.04.16.06.24v.04c.17.73.34,1.47.49,2.21.02.07.03.14.05.21.03.11.05.22.07.33.06.29.12.58.18.87.13.64.25,1.28.36,1.91.01.02.01.05.01.07.13.74.25,1.49.37,2.23.23,1.49.43,2.97.58,4.45.13,1.21.23,2.36.3,3.47.03.55.06,1.09.08,1.62.09,2.52-.01,4.84-.43,7.13Z"/>
    <path class="cls-5" d="m158.62,365.32c-1.09,2.33.67,4.98.74,7.55.05,1.51-.49,2.98-.52,4.5-.07,1.92.64,3.72,1.5,5.45-1.31,2.57-2.68,5.25-4.04,8.12-.05.04-.14.06-.19.06.02,0,.05.07.09.19.01.01.02.03.02.06.01.02.01.05.02.08-1.54.94-2.76,3-2.93,4.89-.16,1.62-.07,3.3-.5,4.87-.71,2.55-2.67,4.53-4.62,6.32-6.99,6.41-14.77,11.89-21.98,18.06-7.21,6.16-13.95,13.15-18.14,21.65-2.33,4.76-4.32,10.43-9.21,12.45-2.81,1.18-6.07.8-8.91-.34-1.11-.45-2.17-1-3.2-1.62-.16-.2-.32-.41-.48-.62-.25-.33-.51-.67-.75-1.01-.58-.79-1.14-1.6-1.66-2.43-.19-.28-.36-.56-.53-.84-.62-1.01-1.2-2.06-1.73-3.15-1.26-2.59-2.18-4.55-2.51-7.45-.07-.59-.12-1.16-.14-1.75-.12-1.57-.15-3.14-.08-4.72.03-.5.07-1,.12-1.5.02-.23.03-.45.07-.64.07-.73.15-1.44.29-2.13.26-1.56.64-3.04,1.11-4.49,0,.22.02.43.03.65.38,4.07,2.54,8.2,6.3,9.79,2.78,1.19,6.03.81,8.82-.36,2.76-1.18,5.17-3.1,7.5-5.02,4.77-3.94,9.42-8.06,13.92-12.33,4.3-4.1,8.52-8.38,11.71-13.42,3.18-5.01,5.3-10.87,5.08-16.82,4.75.83,9.87-2.46,11.12-7.12.84-3.2.14-6.94,2.12-9.57,1.02-1.35,2.6-2.16,3.93-3.21,2.94-2.39,4.53-6,6.74-9.06,1.27-1.77,2.96-3.43,4.88-4.38.09,0,.17-.01.26-.01-1.02,2-.73,4.51-1.99,6.43-.67,1.02-1.75,1.76-2.26,2.87Z"/>
    <path class="cls-5" d="m232.95,292.85c-.43.95-.71,2.06-1.12,3.03-1.02,2.42-3.17,4.25-5.55,5.37-2.39,1.11-5.02,1.58-7.63,1.92-2.64.33-5.29.54-7.94.68-4.65.27-9.32.39-13.95.81-2.65.24-5.77.45-8.66,1.04h-.02c-1.16.11-2.32.24-3.48.4-.57.06-1.15.14-1.73.23-1.16.17-2.32.36-3.49.58-.58.1-1.17.22-1.75.34-.59.12-1.18.25-1.77.38-.58.13-1.18.27-1.77.42,1.8-2.75,11.33-6.85,12.5-7.16,5.5-1.42,11.24-1.47,16.91-1.42,3.7.05,7.53.11,10.98-1.24,2.77-1.08,5.12-2.99,7.56-4.69.71-.48,1.44-.95,2.18-1.38,2.9.22,5.83.45,8.73.69Z"/>
    <path class="cls-5" d="m241.58,312.68v.19c0,.14,0,.3-.02.43-1.73,3.43-4.96,6.04-8.54,7.53-4.12,1.69-8.65,2.07-13.09,2.07s-8.89-.36-13.33-.05c-7.51.54-14.77,2.96-22.24,3.77-2.45.26-4.94.35-7.42.52-1.22-.38-2.45-.8-3.7-1.26-.31-.12-.64-.23-.95-.33-1.93-.62-3.89-.94-5.82-.87.25-.17.57-.33.91-.45,3.41-1.24,7.47-1.55,11.03-2.21,3.79-.69,7.6-1.35,11.42-1.9,4.35-.64,8.73-1.18,13.14-1.52,5.01-.42,10.06-.59,15.02-1.44,2.77-.47,5.61-1.19,7.84-2.9,1.14-.88,2.09-1.97,3.28-2.76.42.01.84.04,1.26.06,3.71.38,7.44.76,11.21,1.12Z"/>
    <path class="cls-5" d="m227.05,332.22c-.03,2.35-.31,4.86-2,6.45-1.3,1.23-3.15,1.59-4.91,1.87-3.22.47-6.47.74-9.74.79-.2,0-.43-.01-.69-.05-.24-.14-.48-.27-.72-.4-.41-.23-.82-.46-1.24-.68-.63-.35-1.26-.68-1.9-1-.04-.02-.09-.04-.14-.07-.62-.31-1.24-.61-1.87-.9-.7-.34-1.41-.65-2.12-.96h-.01c-1.47-.64-2.94-1.23-4.43-1.76-.17-.26-.33-.52-.49-.78,1.32-.23,3.24-.04,4.21.02,3.7.24,7.38.76,10.99,1.57,2.15.47,4.48,1.02,6.44.05,2-1,3.06-3.34,4.8-4.7,1.21.19,2.48.36,3.82.55Z"/>
    <path class="cls-5" d="m211.49,352.78c-.69,1.75-2.95,2.42-4.91,2.53-4.98.26-9.8-1.28-14.44-2.93-3.69-1.33-7.39-2.8-11.24-3.65-.01,0-.02,0-.03,0h-.02c-.54-.18-1.07-.34-1.58-.48-.08-.02-.16-.04-.24-.07-.82-.23-1.6-.44-2.36-.61-.34-.08-.67-.16-.99-.22-.32-.07-.64-.14-.95-.19-.4-.08-.79-.14-1.18-.2-.38-.06-.76-.1-1.13-.14-.36-.04-.72-.07-1.07-.09-.15-.01-.3-.02-.44-.03-.96-.04-1.88-.02-2.77.06,3.98-1.33,8.23-1.89,12.44-1.56,1.34.1,2.74.33,3.92,1,.95.56,1.71,1.4,2.58,2.08,2.47,1.95,5.67,2.59,8.75,3.18,2.14.4,4.32.81,6.46.47,1.84-.3,3.67-1.28,4.64-2.86.6.47,1.19.95,1.81,1.44.85.69,1.71,1.4,2.6,2.13l.15.15Z"/>
    <path class="cls-5" d="m292.38,240.79c.26-.06-3.22,4.32-5.05,6.31-3.68,4.01-7.35,8-11.03,12-2.04,2.24-4.12,4.51-5.95,6.91-.19.14-.38.28-.57.43-.4.3-.82.6-1.24.91-.1.08-.2.16-.31.23-.25.19-.5.37-.76.56-.01.01-.02.02-.04.03-.53.39-1.08.78-1.64,1.18-1.96,1.4-4.07,2.86-6.35,4.38,1.98-1.81,3.87-3.71,5.67-5.69.9-1,1.78-2.01,2.64-3.04.86-1.03,1.69-2.08,2.51-3.14,5.76-7.43,10.52-15.61,14.72-24.01.54-1.09,1.07-2.17,1.59-3.26.53-1.09,1.05-2.18,1.56-3.28.39-.85.73-1.67,1.02-2.53.1-.29.19-.58.27-.89.21-.73.37-1.53.5-2.43,2.04,2.36,4.4,15.01,2.46,15.33Z"/>
    <path class="cls-5" d="m287.76,274.36c-6.46,7.61-14.14,14.31-21.73,20.88-1.9,1.66-2.37,2.16-4.52,4.02-3.61.52-6.01.58-8.14.52-3.82-.07-7.54.37-11.27.78,17.82-6.81,33.37-16.25,45.66-26.2Z"/>
    <path class="cls-5" d="m199.22,262.73c-1.41,3.96-3.05,7.83-4.6,11.72-.78,1.92-1.54,3.86-2.23,5.83-.26.72-1.09,2.47-1.46,3.85-.14.05-.29.1-.44.14-.05.01-.1.03-.16.04h-.01c-.18.05-.37.09-.55.12-.16.03-.32.05-.49.07-.13.02-.27.03-.4.04s-.25.02-.38.03c-.16.01-.33.02-.5.03-.15.01-.31.01-.46.02-.05-.38,0-.78.07-1.16.49-2.47,1.7-4.75,2.48-7.14.55-1.68.38-3.49.88-5.19.5-1.73,1.93-2.92,2.52-4.62.66-1.95.9-3.99,1.37-5.98.48-1.97,1-3.94.83-5.98-.17-1.94.33-2.91,1.04-4.69.41-1.1.55-2.37.79-3.51.38-1.86.74-3.72,1.12-5.58.33-1.63.42-3.72,1.04-5.29.47.34.88.77,1.25,1.28.39.52.73,1.09,1.01,1.73.1.21.19.43.27.65,1.5,7.87-.31,16.01-2.99,23.59Z"/>
  </g>
  <g>
    <path class="cls-2" d="m192.99,218.05h-.5c-1.59,0-3.2-.02-4.78-.06-.5-.01-1-.1-2-.29-.73-.15-1.7-.34-3.11-.6,1.93,4.18,3.07,7.79,4.73,10.77.44.81.9,1.57,1.46,2.28.33.45.65.87.95,1.25.33.43.64.84.91,1.22-1.26,1.96-1.74,4.78-2.36,6.7-.18.53-.35,1.08-.54,1.62-.5.21-1.04.43-1.61.66-.17.07-.36.15-.55.22-1.63.66-3.25,1.33-4.88,2.03-.81.34-1.64.69-2.47,1.03-.97.82-1.07,2.04-1.61,3.05,1.89.13,3.91.31,5.98.52.59.05,1.2.12,1.8.17.26.03.54.05.81.08-2.3,7.13-4.61,14.25-6.93,21.36-.45,1.38-.9,2.77-1.35,4.15-1.55-.74-2.97-1.7-4.04-2.8-.18-.17-.33-.35-.49-.52-1.45-1.5-2.9-3.03-4.36-4.55-2.99-3.13-5.96-6.26-8.9-9.42-12.61-14.96-29.17-34.62-31.39-37.39-3.68-4.56-3.18-15.58-2.52-18.5.62-2.83,19.07,12.04,34.82,12.21h.01c8.97.99,18.13-1.59,27.64-8.49,1.66-1.21,3.96-1.5,6.32-1.76.07,0,.13-.02.2-.02,1.16-.14,2.32-.28,3.41-.5.26,3.25.54,6.48.81,9.71.26,3.19-2.26,5.88-5.46,5.87Z"/>
    <path class="cls-2" d="m229.11,311.5c-1.19.79-2.14,1.88-3.28,2.76-2.23,1.71-5.07,2.43-7.84,2.9-4.96.85-10.01,1.02-15.02,1.44-4.41.34-8.79.88-13.14,1.52-3.82.55-7.63,1.21-11.42,1.9-3.56.66-7.62.97-11.03,2.21-.34.12-.66.28-.91.45h-.02c-.76.02-1.51.11-2.25.25-3.82.72-7.59,3.06-11.22,7.59h.05c.76.07,1.52.13,2.27.2.76.07,1.48.14,2.23.23,4.34.45,8.43,1.02,12.72,1.69.57.09,1.14.18,1.73.28,2.89.47,5.9.98,9.15,1.56,1.5.27,3.06.53,4.68.83,1.3.22,2.65.46,4.03.7.07.04.14.07.21.11.45.24.9.48,1.35.72,2.82,1.53,5.38,3.05,7.82,4.66.64.41,1.28.84,1.92,1.28.03.01.05.03.08.06.85.59,1.7,1.2,2.53,1.8.93.69,1.86,1.4,2.81,2.13.13.09.25.19.37.29-.97,1.58-2.8,2.56-4.64,2.86-2.14.34-4.32-.07-6.46-.47-3.08-.59-6.28-1.23-8.75-3.18-.87-.68-1.63-1.52-2.58-2.08-1.18-.67-2.58-.9-3.92-1-4.21-.33-8.46.23-12.44,1.56-2.49.2-4.77.93-7.12,2.18-2.34,1.24-4.72,3-7.45,5.3-1.61,1.39-3.34,2.94-5.24,4.71,4.09-.83,6.69-1.2,9.14-1.89,1.16-.33,2.22-.59,3.19-.76.69-.12,1.34-.21,1.95-.26-1.92.95-3.61,2.61-4.88,4.38-2.21,3.06-3.8,6.67-6.74,9.06-1.33,1.05-2.91,1.86-3.93,3.21-1.98,2.63-1.28,6.37-2.12,9.57-1.25,4.66-6.37,7.95-11.12,7.12.22,5.95-1.9,11.81-5.08,16.82-3.19,5.04-7.41,9.32-11.71,13.42-4.5,4.27-9.15,8.39-13.92,12.33-2.33,1.92-4.74,3.84-7.5,5.02-2.79,1.17-6.04,1.55-8.82.36-3.76-1.59-5.92-5.72-6.3-9.79,0-.22-.03-.43-.03-.65,2.06-6.54,6-12.11,11.1-16.62.12,1.21.76,2.25,2.2,2.83,1.57.63,3.35,0,4.85-.76,3.83-1.95,7.11-4.77,10.36-7.57,5.88-5.07,11.92-10.83,17.59-16.13,2.92-2.75,7.03-7.51,9.35-11.35.23-5.74.33-7.86,1.19-13.07,1.82-11.15,7.18-20.99,12.14-31.14,3.17-6.47,6.83-13.44,12.75-17.21.43-.15.84-.31,1.24-.45,1.96-.67,3.98-1.26,6.05-1.81.94-.24,1.89-.47,2.86-.69.05-.02.12-.04.17-.04,1.11-.26,2.23-.5,3.35-.72.71-.16,1.44-.3,2.17-.42,1.38-.26,2.76-.5,4.15-.72h.03c2.89.15,7.35-.26,8.46-.26,4.13-.04,8.24-.02,12.38.03,8.31.09,16.63.29,24.95.66.44.02.87.03,1.31.06Z"/>
    <path class="cls-2" d="m224.22,292.16c-.74.43-1.47.9-2.18,1.38-2.44,1.7-4.79,3.61-7.56,4.69-3.45,1.35-7.28,1.29-10.98,1.24-5.67-.05-11.41,0-16.91,1.42-1.17.31-10.7,4.41-12.5,7.16-.6.14-1.21.31-1.81.47-1.51.41-3.03.86-4.57,1.38-.9.29-1.8.6-2.71.95-1.25.47-2.67.19-4.52.16.52-.58.94-1.16,1.13-1.39,2.88-3.34,5.79-6.69,8.68-10.03,1.45-1.66,2.94-3.37,4.89-4.41,1.71-.93,3.67-1.28,5.6-1.57,10.5-1.63,21.13-2.18,31.77-2.37,3.89.35,7.78.64,11.67.92Z"/>
    <path class="cls-2" d="m199.68,235.48c-.62,1.57-.71,3.66-1.04,5.29-.38,1.86-.74,3.72-1.12,5.58-.24,1.14-.38,2.41-.79,3.51-.71,1.78-1.21,2.75-1.04,4.69.17,2.04-.35,4.01-.83,5.98-.47,1.99-.71,4.03-1.37,5.98-.59,1.7-2.02,2.89-2.52,4.62-.5,1.7-.33,3.51-.88,5.19-.78,2.39-1.99,4.67-2.48,7.14-.07.38-.12.78-.07,1.16-.39.02-.79.03-1.21.05-1.69.12-3.63.38-5.93,1.56-1.04.52-2.12,1.03-3.25,1.54t.02-.04c.19-.59.38-1.17.57-1.76,4.84-7.59,7.54-16.45,10.15-25.11,1.9-6.35,3.8-12.69,5.71-19.04.48-1.61.96-3.23,1.45-4.86.21-.69.86-2.05,1.05-3.09.49.08.97.21,1.4.38.82.28,1.54.67,2.18,1.23Z"/>
    <path class="cls-2" d="m96.78,384.29c-8.79,1.79-18.49,7.78-20.84,13.16-6.55-4.48-9.46-11-12.9-17.56-.11-.55-.22-1.09-.31-1.64-.01-.07-.03-.14-.04-.21-.07-.39-.13-.79-.19-1.18-.02-.15-.05-.29-.07-.44h0c1.27-1.77,2.11-3.87,2.49-6,.77-4.27.02-8.65-.81-12.94.26.15.51.3.76.45.07.04.15.08.22.13.22.12.44.25.66.37.3.17.59.33.89.48.3.16.61.32.91.46.31.16.61.3.92.44.61.29,1.23.55,1.86.8.31.13.63.26.95.37.63.24,1.27.46,1.92.66.27.09.54.18.81.25.37.12.75.22,1.13.32-.71-.67-1.41-1.33-2.09-2.02-.88-.86-1.74-1.73-2.59-2.63-.14-.14-.27-.29-.4-.44.58.04,1.17.09,1.75.12-6.33-10.51-12.18-21.33-17.52-32.38-2.66-5.54-5.2-11.12-7.61-16.78-.76-1.79-1.52-4.28-2.37-6.81-.07-.8-.14-1.6-.2-2.4,0-.06,0-.11,0-.15-.05-.77-.1-1.54-.13-2.3-.04-.7-.06-1.4-.08-2.1-.13-4.57.05-9.14.6-13.68.01.26.05.49.08.66.71,3.2,1.94,6.28,3.53,9.15,4.86,8.75,12.43,15.54,18.86,23.01,5.92,6.87,13.58,15.51,11.87,24.45,2.78.19,10.63,1.33,11.18,2.49-5.56,2.91-8.49,8.54-7.26,14.91,1.18,6.13,5.33,11.2,9.34,15.97-6.14-2.21-11.66-3.01-10.63,2.16.08,2.88,8.55,7.8,15.32,10.85Z"/>
    <path class="cls-2" d="m125.31,310.75c-8.36-1.92-16.59-3.03-24.05-3.05-.11-.3-.23-.6-.36-.89-.1-.26-.22-.51-.34-.76-.03-.04-.05-.09-.07-.13-.12-.27-.25-.53-.4-.79t-.01-.02c-.14-.27-.29-.53-.46-.79-.14-.25-.29-.49-.46-.73-.18-.28-.37-.55-.57-.83-.33-.46-.68-.91-1.05-1.35-.23-.27-.46-.53-.69-.79-.21-.23-.43-.46-.65-.69-.21-.22-.44-.45-.66-.67-.35-.34-.71-.68-1.09-1.02-.19-.18-.39-.35-.6-.53-.35-.32-.72-.63-1.1-.94-1.31-1.07-2.7-2.13-4.15-3.19-.29-.21-.57-.41-.86-.62-1.72-1.25-3.51-2.52-5.32-3.88-.83-.63-1.67-1.27-2.51-1.94-.08-.05-.15-.12-.23-.18-.4-.32-.8-.65-1.2-.98-.41-.33-.82-.68-1.22-1.04-.59-.5-1.18-1.02-1.76-1.56-.43-.4-.86-.8-1.28-1.22-2.02-1.98-3.98-4.19-5.82-6.7-.2-.28-.41-.56-.61-.85-.21-.29-.41-.58-.6-.87-.4-.59-.79-1.2-1.17-1.82-.2-.32-.39-.63-.57-.95-.19-.32-.38-.65-.56-.98-.44-.77-.86-1.56-1.26-2.38-.46-.94-.91-1.91-1.35-2.92-.32-.75-.64-1.53-.94-2.33-.31-.8-.6-1.62-.89-2.46-.71-2.11-1.35-4.36-1.9-6.76-.1-.43-.2-.87-.3-1.31-.02-.11-.05-.21-.06-.32-.1-.44-.19-.88-.27-1.33-.63-3.21-1.12-6.67-1.45-10.42,2.2,5.85,6.66,12.71,13.04,19.86,3.4,6.86,7.81,13.24,13.03,18.88,3.03,3.28,6.33,6.33,9.88,9.04,4.84,3.74,10.6,7.66,11.41,13.71,7.64,1.87,14.94,5.1,21.48,9.5Z"/>
    <path class="cls-2" d="m94.62,261.65c-.48-.34-.96-.68-1.43-1.03-1.15-.84-2.25-1.68-3.31-2.52-1.19-.94-2.32-1.87-3.4-2.78-.36-.3-.71-.61-1.06-.91-1.4-1.19-2.7-2.36-3.91-3.49-.81-.76-1.58-1.49-2.32-2.2-1.48-1.41-2.83-2.74-4.06-3.96-6.54-6.46-3.25-32.73,8.14-55.38-.18.82-.35,1.64-.5,2.43-.09.47-.18.93-.26,1.38-.18.93-.34,1.84-.49,2.73-.15.89-.28,1.76-.41,2.62,0,.04,0,.07-.02.11-4.63,7.9-5.56,17.74-6.71,27.01-.57,4.63-1.17,9.63,1.04,13.74,1.25,2.3,3.25,4.08,5.15,5.88,5.15,4.88,9.69,10.4,13.55,16.37Z"/>
    <path class="cls-2" d="m238.44,150.21c-10.19,2.52-27.84,7.64-45.36,8.76-2.82-12.69-1.44-25.83.41-38.55,1.12-7.69,7.71-26.32-4.29-28.8-4.56-.94-9.27,1.34-12.59,4.59,5.48-8.94,9.39-18.82,11.55-29.08,1.08-5.1,1.81-10.36,1.93-15.58.11-4.93-3.39-8.87-2.9-13.88.33-3.61,2.66-6.7,3.82-10.16.52-1.59.12-3.34-.26-5.03.07.02.14.05.22.09-.81-.39-1.25-.6-1.25-.6,0,0-1.17.56-3.14,1.53-3.29,2.14-6.87,4.08-9.98,6.43-12.4,9.4-24.8,18.81-37.21,28.22-7.57,5.76-15.34,11.69-20.39,19.74-2.97,4.74-4.91,10.05-6.71,15.34-7.85,22.95-13.76,46.53-17.67,70.46,7.64-17.87,12.52-24.2,12.95-24.74-.36,1.23-12.05,40.79-12.09,63.18-.01,22.79,11.85,29.05,25.73,44.24,13.46,14.71,15.55,16.27,41.83,35.53-1.45-1.52-32.06-32.28-50.83-57.86-4.33-5.89-4.12-12.79-4-18.76.03-1.37.12-2.74.28-4.1,3.79-47.22,16.23-55.23,20.27-57.03,3.84-1.69,22.6,6.84,57.02,18.08,1.29.11,2.56.18,3.79.19,15.8.01,36.76-8.38,49.11-12.13-.07-.03-.15-.07-.24-.08Zm-105.02-60.85c1.73,1.68,3.74,2.04,7.37,2.56-3.77,2.42-9.08,3.21-11.17,3.53-9.39,1.38-10.43,6.93-13.33,15.07-2.49,6.95-4.26,12.45-9.24,20.18,2.99-7.97,2.79-7.54,3.76-11.38,2.64-10.63,4.3-21.68,8.73-31.48,2.33-5.19,7.24-8.72,12.02-11.71,3.02-1.9,6.39-5.22,10.11-5.38-2.77,4.97-5.45,8.41-8.73,12.54-2.8,3.53-2.58,3.11.48,6.07Z"/>
    <path class="cls-2" d="m273.26,212.65c-2.49,15.3-10.3,24.12-23.48,34.82,1.15-1.37,2.29-2.75,3.42-4.15.37-.46.74-.93,1.11-1.4,3.84-4.85,7.43-9.85,10.44-14.8.49-.79.96-1.57,1.41-2.35.4-.71.77-1.42,1.09-2.14.33-.73.62-1.45.87-2.18.22-.64.42-1.28.6-1.93.27-.96.48-1.93.66-2.9.12-.64.23-1.29.31-1.92.05-.32.09-.64.13-.96.22-1.82.34-3.6.45-5.32.25-3.88-.06-7.79-.91-11.59-.22-.99-.47-1.96-.76-2.93-.15-.49-.3-.98-.45-1.47-.72-2.43-1.42-4.74-2.1-6.94-.13-.44-.26-.87-.4-1.3-.26-.86-.52-1.71-.79-2.54-.5-1.65-1-3.24-1.5-4.75-.11-.38-.23-.75-.36-1.12-.23-.74-.47-1.46-.71-2.17-.23-.7-.46-1.39-.69-2.06-.12-.38-.25-.76-.39-1.13-.2-.61-.41-1.2-.62-1.78-.33-.94-.65-1.83-.99-2.69-.29-.81-.59-1.58-.89-2.33-.02-.05-.04-.1-.06-.14-.21-.52-.42-1.03-.63-1.52-.1-.25-.2-.49-.31-.73-.1-.24-.21-.47-.31-.7-.1-.23-.2-.46-.31-.68-.05-.11-.1-.22-.15-.33-.29-.62-.58-1.21-.87-1.78-.29-.56-.57-1.09-.86-1.59,4.96,7.04,9.96,19.4,10.96,21.86,4.29,10.55,8.94,24.38,7.09,35.64Z"/>
    <path class="cls-2" d="m223.23,331.67c-1.74,1.36-2.8,3.7-4.8,4.7-1.96.97-4.29.42-6.44-.05-3.61-.81-7.29-1.33-10.99-1.57-.97-.06-2.89-.25-4.21-.02-.31-.49-.6-.99-.89-1.54-.44-.8-.89-1.64-1.34-2.54,2.17-.23,4.15-.4,5.97-.52,1.12-.07,2.18-.1,3.2-.14,8.04-.24,13.16.69,19.5,1.68Z"/>
  </g>
  <g>
    <path class="cls-4" d="m71.81,357.24c-.58-.03-1.17-.08-1.75-.12-.18-.19-.35-.37-.53-.56-.04-.04-.08-.08-.12-.13-1.03-1.11-2.02-2.24-2.99-3.4-.53-.62-1.05-1.25-1.55-1.89-.34-.42-.67-.83-.99-1.25-.49-.62-.97-1.26-1.44-1.9-.33-.42-.64-.85-.94-1.28-.32-.43-.62-.87-.92-1.3-.62-.86-1.21-1.74-1.79-2.63-.29-.44-.58-.89-.86-1.33-.29-.44-.57-.89-.85-1.35-.28-.45-.55-.9-.82-1.36-.19-.31-.37-.62-.55-.93-.19-.31-.37-.63-.54-.94-.81-1.4-1.58-2.83-2.32-4.27-.39-.75-.77-1.5-1.13-2.26-.07-.13-.13-.26-.19-.39-.72-1.48-1.4-2.98-2.05-4.49-.42-.99-.83-1.98-1.23-2.99-.31-.78-.61-1.58-.91-2.37-1.38-6.19-2.47-12.48-3.03-18.83.85,2.53,1.61,5.02,2.37,6.81,2.41,5.66,4.95,11.24,7.61,16.78,5.34,11.05,11.19,21.87,17.52,32.38Z"/>
    <path class="cls-4" d="m127.76,219.53c2.22,2.77,18.78,22.43,31.39,37.39-1.33-1.4-2.65-2.8-3.96-4.21-1.31-1.41-2.63-2.82-3.94-4.23-.27-.3-.54-.59-.82-.88-.27-.29-.55-.58-.81-.88-1.01-1.08-2.02-2.16-3.01-3.25-.54-.59-1.08-1.18-1.62-1.77-2.16-2.33-4.31-4.67-6.44-7.02-3.59-3.92-7.16-7.87-10.72-11.81-.61-.69-1.18-1.45-1.69-2.27-.26-.41-.5-.83-.73-1.26-.57-1.09-1.06-2.24-1.46-3.4-.08-.24-.16-.47-.23-.7-.21-.71-.4-1.41-.56-2.11-.06-.23-.1-.46-.15-.69-.02-.08-.03-.15-.03-.24-.05-.25-.1-.5-.15-.75-.08-.51-.16-1.02-.23-1.53-.03-.26-.06-.52-.09-.78-.14-1.24-.24-2.5-.31-3.77-.05-.84-.08-1.68-.11-2.53-.03-.64-.05-1.29-.07-1.94-.02-.63-.04-1.26-.06-1.89-.01-.27.04-.52.14-.74.08-.21.21-.39.36-.54.43-.43,1.08-.63,1.72-.42,4.07,1.3,8.37,2.27,11.52,4.74,1,.8,2.02,1.56,3.02,2.27.51.34,1.01.71,1.51,1.03.5.35.99.66,1.49.96,2.04,1.29,4.08,2.42,6.1,3.37.5.24,1.02.46,1.52.67.83.35,1.64.68,2.46.95.34.14.71.26,1.07.37.72.24,1.45.45,2.18.64.33.08.64.17.95.22.33.09.66.16.98.23,1.02.2,2.06.36,3.08.48-15.75-.17-34.2-15.04-34.82-12.21-.66,2.92-1.16,13.94,2.52,18.5Z"/>
    <path class="cls-4" d="m186.58,23.5c-3.29,2.14-6.87,4.08-9.98,6.43-12.4,9.4-24.8,18.81-37.21,28.22-7.57,5.76-15.34,11.69-20.39,19.74-2.97,4.74-4.91,10.05-6.71,15.34-7.85,22.95-13.76,46.53-17.67,70.46-1.49,3.51-3.1,7.46-4.79,11.9,1.95-38.61,12.76-77.15,16.57-89.83,3.8-12.64,25.95-27.16,40.53-38.85,11.58-9.3,31.88-19.61,39.65-23.41Z"/>
    <path class="cls-4" d="m185.8,162.24c-.47-.03-.94-.07-1.41-.12-.12-.01-.25-.03-.37-.04-.09-.01-.18-.02-.27-.03-.55-.06-1.1-.12-1.66-.2-.43-.05-.85-.11-1.28-.18-.03,0-.07-.01-.11-.02-.55-.08-1.1-.17-1.65-.26-.45-.07-.9-.15-1.35-.24-.45-.08-.9-.17-1.36-.26-1.86-.37-3.73-.8-5.61-1.27-2.04-.51-4.08-1.07-6.1-1.66-.65-.18-1.3-.37-1.94-.57-3.26-.98-6.45-2.01-9.48-3.02-.31-.1-.63-.21-.95-.31-1.74-.58-3.42-1.15-5.03-1.68-.4-.14-.8-.27-1.19-.4-1.18-.39-2.31-.77-3.39-1.11-.45-.15-.88-.29-1.31-.42-.65-.2-1.29-.39-1.9-.57-.31-.09-.6-.18-.89-.26-.42-.12-.83-.23-1.22-.33-.19-.06-.39-.11-.58-.15-.19-.05-.37-.1-.56-.14-.18-.04-.36-.09-.53-.12-.36-.08-.69-.15-1.02-.21-.64-.12-1.22-.2-1.74-.24-.57-.04-1.13-.02-1.67.07-.12.02-.24.04-.36.07-.06.01-.12.02-.18.04-.18.04-.35.09-.53.15-.23.08-.46.17-.68.28-.57.26-1.13.62-1.68,1.06-.22.17-.43.36-.64.57-.11.09-.21.2-.32.32-.11.1-.22.22-.33.34-.13.14-.26.29-.39.45-.12.14-.24.29-.35.44-.24.3-.48.62-.71.96-.24.34-.47.7-.7,1.08-.02.02-.03.04-.04.06-.32.51-.63,1.05-.94,1.63-.31.58-.62,1.19-.93,1.84-.18.37-.37.76-.55,1.17-.03.05-.05.11-.08.17-.21.46-.42.94-.63,1.44-.22.49-.43,1.01-.64,1.54-.22.52-.44,1.07-.65,1.63-.22.56-.44,1.14-.66,1.74-.45,1.19-.9,2.45-1.36,3.78-.92,2.65-1.89,5.58-2.92,8.81-.25.8-.51,1.62-.78,2.47-.26.84-.53,1.7-.8,2.58-.14.43-.28.88-.41,1.33-.28.9-.56,1.81-.85,2.75-.34,1.11-.68,2.25-1.03,3.41-.1.3-.19.61-.28.92-.1.31-.19.63-.29.95-.06.18-.11.36-.17.55-.15.51-.3,1.02-.46,1.53-.13.44-.26.88-.37,1.32-.07.24-.13.48-.18.72-.2.77-.37,1.55-.5,2.34-.06.3-.12.61-.16.92-.07.44-.14.88-.19,1.32,3.79-47.22,16.23-55.23,20.27-57.03,3.84-1.69,22.6,6.84,57.02,18.08t.02.01Z"/>
    <path class="cls-4" d="m161.99,315.86c-5.92,3.77-9.58,10.74-12.75,17.21-4.96,10.15-10.32,19.99-12.14,31.14-.86,5.21-.96,7.33-1.19,13.07-2.32,3.84-6.43,8.6-9.35,11.35-5.67,5.3-11.71,11.06-17.59,16.13-3.25,2.8-6.53,5.62-10.36,7.57-1.5.76-3.28,1.39-4.85.76-1.44-.58-2.08-1.62-2.2-2.83,1.12-1,2.28-1.96,3.51-2.84.54-.38,1.09-.76,1.64-1.14.59-.4,1.2-.78,1.8-1.16.69-.43,1.4-.84,2.13-1.24,6.08-3.39,11.88-7.42,17.27-11.83,5.9-4.81,11.14-10.41,16.62-15.61.1.13.21.29.29.43-.83-9.22,1.39-18.31,4.98-27.25,1.35-3.41,2.8-6.78,4.34-10.12,1.59-3.46,3.27-6.86,5.05-10.22,1.26-2.42,2.6-4.8,3.98-7.16.38-.64.85-1.24,1.42-1.79.29-.32.64-.61.98-.9.26-.23.54-.44.83-.64,1.06-.75,2.23-1.42,3.43-1.97.36-.18.72-.35,1.1-.51.35-.15.71-.31,1.06-.45Z"/>
    <path class="cls-4" d="m196.1,233.87c-.19,1.04-.84,2.4-1.05,3.09-.49,1.63-.97,3.25-1.45,4.86-1.91,6.35-3.81,12.69-5.71,19.04-2.61,8.66-5.31,17.52-10.15,25.11,1.12-3.48,2.25-6.94,3.37-10.36,2.06-6.36,4.12-12.69,6.17-19.04.18-.52.35-1.04.52-1.57.63-1.94,1.26-3.89,1.9-5.83,1.66-5.1,3.32-10.24,5.02-15.42v-.02c.48.02.93.07,1.38.14Z"/>
    <path class="cls-4" d="m212.55,291.24c-10.64.19-21.27.74-31.77,2.37-1.93.29-3.89.64-5.6,1.57-1.95,1.04-3.44,2.75-4.89,4.41-2.89,3.34-5.8,6.69-8.68,10.03-.19.23-.61.81-1.13,1.39h-.67c.46-.7.95-1.39,1.43-2.08,1.47-2.07,3.03-4.13,4.62-6.16,2.42-3.07,4.93-6.05,7.35-8.81,11.05-2.2,17.58-5.3,27.03-4.03,4.09.53,8.19.95,12.31,1.31Z"/>
    <path class="cls-4" d="m230.37,311.56c-.42-.02-.84-.05-1.26-.06-.44-.03-.87-.04-1.31-.06-8.32-.37-16.64-.57-24.95-.66-4.14-.05-8.25-.07-12.38-.03-1.11,0-5.57.41-8.46.26.05-.02.12-.02.17-.04l2.49-.36c.25-.05.47-.07.71-.11,1.13-.15,2.23-.31,3.34-.45,2.87-.38,5.71-.69,8.44-.96,1.16-.12,2.33-.44,3.47-.44.18,0,.33.02.51.04,2.49.24,4.96.47,7.45.72,2.52.25,5.05.49,7.57.73,4.31.43,8.66.87,13.04,1.3.39.04.78.08,1.17.12Z"/>
    <path class="cls-4" d="m64.92,370.42c-.38,2.13-1.22,4.23-2.49,5.99-.08-.52-.15-1.03-.21-1.55-.06-.43-.11-.85-.15-1.28-.04-.33-.07-.66-.1-1-.08-.82-.15-1.65-.22-2.49-.05-.65-.11-1.29-.17-1.94-.03-.32-.05-.65-.08-.97-.08-.97-.17-1.94-.25-2.91-.05-.65-.1-1.29-.14-1.94,0-.03,0-.07,0-.12-.03-.71.04-2.61,0-4.27,0-.1,0-.21,0-.31-.01-.32-.03-.62-.04-.9-.01-.18-.03-.36-.05-.52-.05-.37-.11-.67-.19-.87-.02-.06-.04-.1-.07-.15-.03-.04-.05-.07-.08-.09.38.29.76.57,1.15.85.07.05.15.11.23.16.39.28.78.54,1.18.8.29.2.59.38.88.56h0c.83,4.3,1.58,8.68.81,12.95Z"/>
  </g>
</svg>