<?xml version="1.0" encoding="UTF-8"?>
<svg id="All_other" data-name="All other" xmlns="http://www.w3.org/2000/svg" viewBox="0 0 900.78 989.78">
  <defs>
    <style>
      .cls-1 {
        fill: #e3e3e8;
      }

      .cls-1, .cls-2, .cls-3 {
        stroke-width: 0px;
      }

      .cls-2 {
        fill: none;
      }

      .cls-3 {
        fill: #5f30e0;
      }
    </style>
  </defs>
  <path class="cls-3" d="m814.3,138.12c-24.65,66.43-37.91,136.98-38.37,207.83-.88,76.48,12.98,153.95-.04,229.52-3.45,19.95-3.77,34.9-7.29,52.27-19.77-63.22-83.23-129.27-139.82-151.98,29.83-37.47,32.64-49.4,42.57-66.11-70.67-29.1-205.52,36.78-256.97-58.8h1.87c83.72,1.6,159.53-20.6,225.8-58.13,9.62-5.5,19.08-11.27,28.21-17.44,55.29-36.52,103.41-83.97,144.04-137.15Z"/>
  <path class="cls-1" d="m735.62,770.79c-.52,1.41-1.08,2.81-1.67,4.21-25.41,60.25-101.88,77.34-160.5,80.35-80.06,4.12-168.84-18.36-237.7-58.09-31.27-18.04-57.25-42.7-81.27-69.95-29-32.9-47.48-77.17-41.38-120.76-1.02,7.3,20.34,28.73,25.04,34.38,10.02,12.04,20.89,23.37,32.47,33.91,22.61,20.59,47.95,38.18,75.09,52.27,54.48,28.28,127.42,49.06,188.89,35.99,31.36-6.67,62.86-30.78,63.91-65.28,1.92-63.09-80.69-90.8-129.03-103.93-117.05-31.78-253.79-29.94-345.58-121.16-55.44-55.27-80.6-155.41-24.75-219.38,21.13-24.2,51.42-38.83,82.48-46.99,50.92-13.37,104.55-10.82,157.02-6.42,94.99,7.98,189.5,21.73,282.83,41.14-31.6,17.25-60.82,28.64-96.71,28.46s-73.59.58-110.34,2.36c-47.54,2.31-113.47,11.22-134.7,61.52-8.49,20.12-6.69,43.75,2.42,63.6,10.11,22.04,29.05,41.34,50.86,51.93,104.85,50.96,235.65,38.8,325.13,120.55,50.07,45.75,103.75,130.75,77.51,201.24Z"/>
  <path class="cls-2" d="m622.16,241.24c-22.22,11.36-45.28,21.03-69.03,28.66"/>
</svg>